PathFileType	4	(X/Y/Z)	/Users/itak/Documents/Research/Walk-IL/dataset/trc/00343_00011.trc
DataRate	CameraRate	NumFrames	NumMarkers	Units	OrigDataRate	OrigDataStartFrame	OrigNumFrames
100.000000	100.000000	4	54	mm	100.000000	675	772
Frame#	Time	RPSI			LPSI			L3			STRN			T10			C7			CLAV			RBAK			LBAK			LSHO			LUPA			LAEL			LAOL			LWTS			LWPS			LFRA			LIFD			LHPS			LHTS			RSHO			RUPA			RAEL			RAOL			RWTS			RWPS			RFRA			RIFD			RHTS			RHPS			RBHD			LFHD			RFHD			LBHD			LHIP			RHIP			RASI			LASI			LKNE			LTHI			LANK			LTIP			LTOE			LMT1			LMT5			LHEE			RKNE			RTHI			RTIP			RTOE			RMT1			RMT5			RHEE			RANK			*53			
		X1	Y1	Z1	X2	Y2	Z2	X3	Y3	Z3	X4	Y4	Z4	X5	Y5	Z5	X6	Y6	Z6	X7	Y7	Z7	X8	Y8	Z8	X9	Y9	Z9	X10	Y10	Z10	X11	Y11	Z11	X12	Y12	Z12	X13	Y13	Z13	X14	Y14	Z14	X15	Y15	Z15	X16	Y16	Z16	X17	Y17	Z17	X18	Y18	Z18	X19	Y19	Z19	X20	Y20	Z20	X21	Y21	Z21	X22	Y22	Z22	X23	Y23	Z23	X24	Y24	Z24	X25	Y25	Z25	X26	Y26	Z26	X27	Y27	Z27	X28	Y28	Z28	X29	Y29	Z29	X30	Y30	Z30	X31	Y31	Z31	X32	Y32	Z32	X33	Y33	Z33	X34	Y34	Z34	X35	Y35	Z35	X36	Y36	Z36	X37	Y37	Z37	X38	Y38	Z38	X39	Y39	Z39	X40	Y40	Z40	X41	Y41	Z41	X42	Y42	Z42	X43	Y43	Z43	X44	Y44	Z44	X45	Y45	Z45	X46	Y46	Z46	X47	Y47	Z47	X48	Y48	Z48	X49	Y49	Z49	X50	Y50	Z50	X51	Y51	Z51	X52	Y52	Z52	X53	Y53	Z53	X54	Y54	Z54	

676	6.75	-143.059814453125	982.9676513671875	1103.73681640625	-166.0771331787109	983.243408203125	976.22509765625	-152.3025207519531	1039.911499023438	1040.293579101562	63.52312850952148	1235.52978515625	981.266357421875	-169.1588287353516	1158.623657226562	1025.266967773438	-145.1525421142578	1406.373291015625	986.7809448242188	13.80742835998535	1359.029174804688	974.5330200195312	-173.7678527832031	1270.438232421875	1072.553344726562	-166.6087951660156	1362.909423828125	891.0982666015625	-90.7225341796875	1380.20361328125	822.7249755859375	-119.0289306640625	1260.623413085938	763.0501708984375	-115.8514175415039	1058.816528320312	742.326171875	-158.7016143798828	1044.653686523438	814.181884765625	-22.89138603210449	810.767578125	744.2535400390625	-78.81024932861328	805.2861938476562	703.303466796875	-109.1513977050781	954.3702392578125	725.898193359375	-27.20915031433105	651.5907592773438	745.0999755859375	-85.10176849365234	735.256103515625	706.1865844726562	-21.97352600097656	732.784912109375	721.4393920898438	-67.03988647460938	1410.3837890625	1139.847412109375	-64.86567687988281	1353.456665039062	1210.551879882812	-11.22579860687256	1102.926879882812	1292.099243164062	-53.91506576538086	1071.34130859375	1213.724731445312	149.0035705566406	905.2508544921875	1276.028442382812	120.1920394897461	891.8689575195312	1345.839965820312	27.99541664123535	1044.283081054688	1311.917602539062	209.9731903076172	746.9068603515625	1309.041137695312	205.9835205078125	820.5482177734375	1304.789306640625	158.8596038818359	816.0355224609375	1354.84423828125	-109.284294128418	1614.284545898438	1043.217651367188	51.50461959838867	1634.997924804688	912.5980834960938	47.96680450439453	1642.432250976562	1013.164123535156	-130.8084106445312	1596.10888671875	901.3575439453125	-96.34992980957031	932.3960571289062	856.8516845703125	-50.62682342529297	931.700927734375	1199.866821289062	51.12169647216797	961.2843627929688	1138.160888671875	31.59406280517578	960.4225463867188	898.4844360351562	50.41505432128906	487.1245727539062	836.1908569335938	20.59052848815918	620.315185546875	834.4320678710938	-201.5124969482422	125.8590087890625	859.1966552734375	-78.40736389160156	298.1125793457031	835.4683227539062	-3.09037446975708	66.67269134521484	902.4226684570312	-70.03354644775391	69.75941467285156	947.2554931640625	-85.86750030517578	84.87641143798828	836.8487548828125	-229.3172149658203	134.5055389404297	929.19140625	30.74273872375488	467.6061706542969	1175.556518554688	44.13084030151367	729.642333984375	1190.005981445312	45.25527954101562	349.1393432617188	1166.593994140625	180.0629730224609	43.84162902832031	1094.663208007812	123.4319152832031	44.70513534545898	1056.387084960938	90.12966156005859	31.94837760925293	1170.51025390625	-61.70041656494141	53.38086318969727	1110.565063476562	-10.64944267272949	46.14703369140625	1158.781494140625	nan	nan	nan	
677	6.76	-140.0327301025391	983.2529296875	1105.761962890625	-163.4973297119141	983.7450561523438	978.3377075195312	-149.4734039306641	1040.205322265625	1042.5595703125	66.28954315185547	1235.814208984375	983.1515502929688	-166.3613586425781	1159.170654296875	1028.002319335938	-142.2190246582031	1406.899780273438	989.57861328125	16.66705513000488	1359.391845703125	976.6544799804688	-170.6535797119141	1270.789672851562	1075.659545898438	-164.1196899414062	1363.466796875	893.94677734375	-88.54002380371094	1380.609619140625	825.3137817382812	-116.9751358032227	1260.922729492188	765.8523559570312	-113.7415618896484	1059.030883789062	745.57373046875	-156.6046142578125	1045.107543945312	817.4603271484375	-20.10199928283691	811.2899169921875	748.5985717773438	-75.8709716796875	805.3114624023438	707.5223388671875	-106.8241958618164	954.511474609375	729.488525390625	-23.54168510437012	652.1646728515625	750.5345458984375	-81.82171630859375	735.18798828125	710.9265747070312	-18.75060844421387	733.1621704101562	726.3139038085938	-63.43223571777344	1410.755004882812	1142.328369140625	-60.80350112915039	1353.766479492188	1212.978271484375	-5.586813926696777	1103.480834960938	1294.3291015625	-48.80167007446289	1071.635375976562	1216.390869140625	155.8249969482422	906.9851684570312	1276.491577148438	127.7238693237305	893.2479858398438	1346.580932617188	34.15130233764648	1045.02783203125	1313.808715820312	218.2174835205078	748.9933471679688	1308.5439453125	213.7115631103516	822.6737670898438	1304.570190429688	167.0777740478516	817.579345703125	1354.92919921875	-105.8198013305664	1614.763427734375	1045.916625976562	54.30475997924805	1635.31201171875	914.6063232421875	51.33218383789062	1642.745727539062	1015.1611328125	-128.0594635009766	1596.663208007812	904.2037963867188	-94.13248443603516	933.0255126953125	858.6691284179688	-47.79227447509766	931.8612060546875	1201.716186523438	54.2070198059082	961.2237548828125	1139.598266601562	34.07818603515625	961.0042114257812	899.9437866210938	51.58619689941406	487.1211547851562	837.1633911132812	22.05083656311035	620.9290771484375	835.1681518554688	-189.0680999755859	118.1501007080078	863.0756225585938	-72.43367767333984	294.772216796875	838.0126953125	12.93669414520264	69.45826721191406	902.0396728515625	-53.09763717651367	68.56273651123047	948.0767211914062	-72.01339721679688	83.57126617431641	838.28466796875	-215.9750366210938	125.1354675292969	933.6066284179688	30.95189094543457	467.4190063476562	1176.715698242188	46.02693557739258	729.392822265625	1191.281372070312	45.14860534667969	349.0516662597656	1167.5625	180.0196685791016	44.06132125854492	1094.885986328125	123.4228439331055	44.90076065063477	1056.3798828125	90.03901672363281	31.93539237976074	1170.4794921875	-61.78133392333984	53.31815338134766	1110.66796875	-10.65867900848389	46.13714218139648	1158.84375	nan	nan	nan	
678	6.77	-137.0286102294922	983.599365234375	1107.607177734375	-160.9109497070312	984.2421875	980.270263671875	-146.6504669189453	1040.457275390625	1044.637573242188	68.96446990966797	1236.046752929688	984.9741821289062	-163.6701354980469	1159.618530273438	1030.546264648438	-139.3709564208984	1407.345336914062	992.2587890625	19.43001937866211	1359.705200195312	978.7044677734375	-167.5551147460938	1271.005493164062	1078.490966796875	-161.7104644775391	1363.936401367188	896.6542358398438	-86.42421722412109	1380.934204101562	827.7908935546875	-114.9039688110352	1261.117431640625	768.5345458984375	-111.4642105102539	1059.12744140625	748.7324829101562	-154.4135131835938	1045.43994140625	820.6051635742188	-17.14713668823242	811.698486328125	753.0238647460938	-72.69174194335938	805.2486572265625	711.7232055664062	-104.2882232666016	954.5548706054688	733.020751953125	-19.74579811096191	652.6268920898438	756.0068359375	-78.31761932373047	735.0309448242188	715.6336059570312	-15.34287738800049	733.4451904296875	731.270263671875	-59.99572372436523	1411.020385742188	1144.704345703125	-56.95724868774414	1353.93359375	1215.266479492188	-0.2539911866188049	1103.866088867188	1296.385131835938	-44.01641082763672	1071.814697265625	1218.850952148438	162.2771453857422	908.53369140625	1276.735595703125	134.8663177490234	894.4261474609375	1347.081665039062	39.96540832519531	1045.581176757812	1315.497924804688	226.0874786376953	750.912109375	1307.79345703125	221.0420532226562	824.6051025390625	1304.122680664062	174.8876800537109	818.9271240234375	1354.7841796875	-102.4776306152344	1615.211547851562	1048.49658203125	57.0322151184082	1635.5498046875	916.5487060546875	54.57378387451172	1642.99658203125	1017.108825683594	-125.3792266845703	1597.172485351562	906.9306030273438	-91.85837554931641	933.5424194335938	860.3682861328125	-44.95500564575195	932.0494384765625	1203.410034179688	57.22664260864258	961.1703491210938	1140.914916992188	36.58766555786133	961.5028686523438	901.2965698242188	52.18523406982422	486.9205627441406	838.2132568359375	23.15383148193359	621.353271484375	835.9209594726562	-176.7661743164062	110.7601852416992	866.3143310546875	-66.80329895019531	291.4912109375	840.2719116210938	28.17635345458984	72.28437805175781	900.7205200195312	-36.68537521362305	67.45229339599609	947.974853515625	-58.72888946533203	82.5341796875	838.916748046875	-202.5399322509766	115.8818588256836	937.3646850585938	31.16133689880371	467.2597351074219	1177.80029296875	47.87985992431641	729.1793212890625	1192.460815429688	45.0567512512207	349.0003051757812	1168.482299804688	179.9801788330078	44.29896926879883	1095.099975585938	123.4227752685547	45.11341857910156	1056.375610351562	89.94798278808594	31.92629432678223	1170.4560546875	-61.86548233032227	53.25403594970703	1110.776733398438	-10.66189289093018	46.13889312744141	1158.9052734375	nan	nan	nan	
679	6.78	-134.0582122802734	984.0121459960938	1109.272705078125	-158.3206634521484	984.7489624023438	982.0322265625	-143.8308868408203	1040.6806640625	1046.526611328125	71.55680847167969	1236.236938476562	986.7205200195312	-161.0724029541016	1159.965576171875	1032.906005859375	-136.61328125	1407.71435546875	994.8164672851562	22.09625434875488	1359.973388671875	980.6756591796875	-164.4630737304688	1271.102661132812	1081.0478515625	-159.3794555664062	1364.331298828125	899.2225952148438	-84.37007904052734	1381.195678710938	830.1509399414062	-112.8208160400391	1261.224609375	771.0932006835938	-109.0264205932617	1059.123046875	751.80126953125	-152.1297760009766	1045.665893554688	823.6278076171875	-14.03226470947266	812.013427734375	757.5145263671875	-69.28717041015625	805.1205444335938	715.9005126953125	-101.546630859375	954.5165405273438	736.49755859375	-15.84446716308594	652.9915161132812	761.4808349609375	-74.60595703125	734.8114013671875	720.2875366210938	-11.76509284973145	733.6574096679688	736.2811279296875	-56.7208137512207	1411.188354492188	1146.974853515625	-53.31760406494141	1353.9736328125	1217.419799804688	4.764930248260498	1104.092895507812	1298.26708984375	-39.57257461547852	1071.886962890625	1221.089599609375	168.3501434326172	909.9000854492188	1276.768798828125	141.6113586425781	895.4035034179688	1347.341186523438	45.4290771484375	1045.953369140625	1316.980834960938	233.5743103027344	752.66015625	1306.8037109375	227.9542694091797	826.3330688476562	1303.470581054688	182.2561492919922	820.0947875976562	1354.448974609375	-99.26103210449219	1615.626831054688	1050.968627929688	59.68549728393555	1635.723999023438	918.4268798828125	57.68287658691406	1643.1884765625	1019.003784179688	-122.7733383178711	1597.639526367188	909.5402221679688	-89.53370666503906	933.96240234375	861.9581298828125	-42.13171768188477	932.2828979492188	1204.962158203125	60.17807006835938	961.1148681640625	1142.115844726562	39.10944366455078	961.9155883789062	902.5463256835938	52.26542663574219	486.5451965332031	839.3743286132812	23.88894462585449	621.5972900390625	836.7208251953125	-164.6668853759766	103.761833190918	868.9226684570312	-61.48874664306641	288.3091430664062	842.2554321289062	42.59605026245117	75.1221923828125	898.6185913085938	-20.87255477905273	66.44451141357422	947.0663452148438	-46.0582389831543	81.75431823730469	838.8382568359375	-189.093505859375	106.8444366455078	940.4600219726562	31.3631649017334	467.12548828125	1178.781860351562	49.71406936645508	728.9816284179688	1193.525512695312	44.97113800048828	348.9756469726562	1169.3291015625	179.9404449462891	44.5542106628418	1095.304077148438	123.425895690918	45.32976531982422	1056.37890625	89.85844421386719	31.91873550415039	1170.4443359375	-61.94934844970703	53.18586730957031	1110.875732421875	-10.66417121887207	46.14510345458984	1158.958740234375	nan	nan	nan	
